<mxfile host="Electron" modified="2024-03-11T13:52:50.121Z" agent="Mozilla/5.0 (Windows NT 10.0; Win64; x64) AppleWebKit/537.36 (KHTML, like Gecko) draw.io/24.0.4 Chrome/120.0.6099.109 Electron/28.1.0 Safari/537.36" etag="EY1VwszXbkJj_GUbJ1UN" version="24.0.4" type="device">
  <diagram id="C5RBs43oDa-KdzZeNtuy" name="Page-1">
    <mxGraphModel dx="2555" dy="997" grid="1" gridSize="10" guides="1" tooltips="1" connect="1" arrows="1" fold="1" page="1" pageScale="1" pageWidth="827" pageHeight="1169" math="0" shadow="0">
      <root>
        <mxCell id="WIyWlLk6GJQsqaUBKTNV-0" />
        <mxCell id="WIyWlLk6GJQsqaUBKTNV-1" parent="WIyWlLk6GJQsqaUBKTNV-0" />
        <mxCell id="zkfFHV4jXpPFQw0GAbJ--6" value="Creator" style="swimlane;fontStyle=0;align=center;verticalAlign=top;childLayout=stackLayout;horizontal=1;startSize=26;horizontalStack=0;resizeParent=1;resizeLast=0;collapsible=1;marginBottom=0;rounded=0;shadow=0;strokeWidth=1;" parent="WIyWlLk6GJQsqaUBKTNV-1" vertex="1">
          <mxGeometry x="270" y="190" width="160" height="90" as="geometry">
            <mxRectangle x="130" y="380" width="160" height="26" as="alternateBounds" />
          </mxGeometry>
        </mxCell>
        <mxCell id="zkfFHV4jXpPFQw0GAbJ--9" value="" style="line;html=1;strokeWidth=1;align=left;verticalAlign=middle;spacingTop=-1;spacingLeft=3;spacingRight=3;rotatable=0;labelPosition=right;points=[];portConstraint=eastwest;" parent="zkfFHV4jXpPFQw0GAbJ--6" vertex="1">
          <mxGeometry y="26" width="160" height="8" as="geometry" />
        </mxCell>
        <mxCell id="zkfFHV4jXpPFQw0GAbJ--10" value="+ factoryMethod(): Product" style="text;align=left;verticalAlign=top;spacingLeft=4;spacingRight=4;overflow=hidden;rotatable=0;points=[[0,0.5],[1,0.5]];portConstraint=eastwest;fontStyle=0" parent="zkfFHV4jXpPFQw0GAbJ--6" vertex="1">
          <mxGeometry y="34" width="160" height="26" as="geometry" />
        </mxCell>
        <mxCell id="zkfFHV4jXpPFQw0GAbJ--11" value="+ someOperation()" style="text;align=left;verticalAlign=top;spacingLeft=4;spacingRight=4;overflow=hidden;rotatable=0;points=[[0,0.5],[1,0.5]];portConstraint=eastwest;" parent="zkfFHV4jXpPFQw0GAbJ--6" vertex="1">
          <mxGeometry y="60" width="160" height="26" as="geometry" />
        </mxCell>
        <mxCell id="hSVaMQJo7yX8vhGdQ6RE-12" value="&lt;&lt;interface&gt;&gt;&#xa;Product" style="swimlane;fontStyle=0;align=center;verticalAlign=top;childLayout=stackLayout;horizontal=1;startSize=40;horizontalStack=0;resizeParent=1;resizeLast=0;collapsible=1;marginBottom=0;rounded=0;shadow=0;strokeWidth=1;" parent="WIyWlLk6GJQsqaUBKTNV-1" vertex="1">
          <mxGeometry x="580" y="190" width="160" height="90" as="geometry">
            <mxRectangle x="130" y="380" width="160" height="26" as="alternateBounds" />
          </mxGeometry>
        </mxCell>
        <mxCell id="hSVaMQJo7yX8vhGdQ6RE-13" value="" style="line;html=1;strokeWidth=1;align=left;verticalAlign=middle;spacingTop=-1;spacingLeft=3;spacingRight=3;rotatable=0;labelPosition=right;points=[];portConstraint=eastwest;" parent="hSVaMQJo7yX8vhGdQ6RE-12" vertex="1">
          <mxGeometry y="40" width="160" height="8" as="geometry" />
        </mxCell>
        <mxCell id="hSVaMQJo7yX8vhGdQ6RE-15" value="+ doStuff()" style="text;align=left;verticalAlign=top;spacingLeft=4;spacingRight=4;overflow=hidden;rotatable=0;points=[[0,0.5],[1,0.5]];portConstraint=eastwest;" parent="hSVaMQJo7yX8vhGdQ6RE-12" vertex="1">
          <mxGeometry y="48" width="160" height="26" as="geometry" />
        </mxCell>
        <mxCell id="hSVaMQJo7yX8vhGdQ6RE-16" value="Concrete&#xa;ProductA" style="swimlane;fontStyle=0;align=center;verticalAlign=top;childLayout=stackLayout;horizontal=1;startSize=40;horizontalStack=0;resizeParent=1;resizeLast=0;collapsible=1;marginBottom=0;rounded=0;shadow=0;strokeWidth=1;" parent="WIyWlLk6GJQsqaUBKTNV-1" vertex="1">
          <mxGeometry x="530" y="360" width="126" height="50" as="geometry">
            <mxRectangle x="130" y="380" width="160" height="26" as="alternateBounds" />
          </mxGeometry>
        </mxCell>
        <mxCell id="hSVaMQJo7yX8vhGdQ6RE-17" value="" style="line;html=1;strokeWidth=1;align=left;verticalAlign=middle;spacingTop=-1;spacingLeft=3;spacingRight=3;rotatable=0;labelPosition=right;points=[];portConstraint=eastwest;" parent="hSVaMQJo7yX8vhGdQ6RE-16" vertex="1">
          <mxGeometry y="40" width="126" height="8" as="geometry" />
        </mxCell>
        <mxCell id="hSVaMQJo7yX8vhGdQ6RE-19" value="Concrete&#xa;ProductB" style="swimlane;fontStyle=0;align=center;verticalAlign=top;childLayout=stackLayout;horizontal=1;startSize=40;horizontalStack=0;resizeParent=1;resizeLast=0;collapsible=1;marginBottom=0;rounded=0;shadow=0;strokeWidth=1;" parent="WIyWlLk6GJQsqaUBKTNV-1" vertex="1">
          <mxGeometry x="670" y="360" width="126" height="50" as="geometry">
            <mxRectangle x="130" y="380" width="160" height="26" as="alternateBounds" />
          </mxGeometry>
        </mxCell>
        <mxCell id="hSVaMQJo7yX8vhGdQ6RE-20" value="" style="line;html=1;strokeWidth=1;align=left;verticalAlign=middle;spacingTop=-1;spacingLeft=3;spacingRight=3;rotatable=0;labelPosition=right;points=[];portConstraint=eastwest;" parent="hSVaMQJo7yX8vhGdQ6RE-19" vertex="1">
          <mxGeometry y="40" width="126" height="8" as="geometry" />
        </mxCell>
        <mxCell id="hSVaMQJo7yX8vhGdQ6RE-26" value="ConcreteCreatorA" style="swimlane;fontStyle=0;align=center;verticalAlign=top;childLayout=stackLayout;horizontal=1;startSize=26;horizontalStack=0;resizeParent=1;resizeLast=0;collapsible=1;marginBottom=0;rounded=0;shadow=0;strokeWidth=1;" parent="WIyWlLk6GJQsqaUBKTNV-1" vertex="1">
          <mxGeometry x="180" y="360" width="160" height="60" as="geometry">
            <mxRectangle x="130" y="380" width="160" height="26" as="alternateBounds" />
          </mxGeometry>
        </mxCell>
        <mxCell id="hSVaMQJo7yX8vhGdQ6RE-27" value="" style="line;html=1;strokeWidth=1;align=left;verticalAlign=middle;spacingTop=-1;spacingLeft=3;spacingRight=3;rotatable=0;labelPosition=right;points=[];portConstraint=eastwest;" parent="hSVaMQJo7yX8vhGdQ6RE-26" vertex="1">
          <mxGeometry y="26" width="160" height="8" as="geometry" />
        </mxCell>
        <mxCell id="hSVaMQJo7yX8vhGdQ6RE-28" value="+ factoryMethod(): Product" style="text;align=left;verticalAlign=top;spacingLeft=4;spacingRight=4;overflow=hidden;rotatable=0;points=[[0,0.5],[1,0.5]];portConstraint=eastwest;fontStyle=0" parent="hSVaMQJo7yX8vhGdQ6RE-26" vertex="1">
          <mxGeometry y="34" width="160" height="26" as="geometry" />
        </mxCell>
        <mxCell id="hSVaMQJo7yX8vhGdQ6RE-30" value="ConcreteCreatorB" style="swimlane;fontStyle=0;align=center;verticalAlign=top;childLayout=stackLayout;horizontal=1;startSize=26;horizontalStack=0;resizeParent=1;resizeLast=0;collapsible=1;marginBottom=0;rounded=0;shadow=0;strokeWidth=1;" parent="WIyWlLk6GJQsqaUBKTNV-1" vertex="1">
          <mxGeometry x="350" y="360" width="160" height="60" as="geometry">
            <mxRectangle x="130" y="380" width="160" height="26" as="alternateBounds" />
          </mxGeometry>
        </mxCell>
        <mxCell id="hSVaMQJo7yX8vhGdQ6RE-31" value="" style="line;html=1;strokeWidth=1;align=left;verticalAlign=middle;spacingTop=-1;spacingLeft=3;spacingRight=3;rotatable=0;labelPosition=right;points=[];portConstraint=eastwest;" parent="hSVaMQJo7yX8vhGdQ6RE-30" vertex="1">
          <mxGeometry y="26" width="160" height="8" as="geometry" />
        </mxCell>
        <mxCell id="hSVaMQJo7yX8vhGdQ6RE-32" value="+ factoryMethod(): Product" style="text;align=left;verticalAlign=top;spacingLeft=4;spacingRight=4;overflow=hidden;rotatable=0;points=[[0,0.5],[1,0.5]];portConstraint=eastwest;fontStyle=0" parent="hSVaMQJo7yX8vhGdQ6RE-30" vertex="1">
          <mxGeometry y="34" width="160" height="26" as="geometry" />
        </mxCell>
        <mxCell id="Ch5hACxwNJ_8r7opMOBk-0" value="" style="endArrow=block;endFill=0;endSize=12;html=1;rounded=0;edgeStyle=orthogonalEdgeStyle;" edge="1" parent="WIyWlLk6GJQsqaUBKTNV-1" source="hSVaMQJo7yX8vhGdQ6RE-26" target="zkfFHV4jXpPFQw0GAbJ--6">
          <mxGeometry width="160" relative="1" as="geometry">
            <mxPoint x="270" y="340" as="sourcePoint" />
            <mxPoint x="430" y="340" as="targetPoint" />
          </mxGeometry>
        </mxCell>
        <mxCell id="Ch5hACxwNJ_8r7opMOBk-1" value="" style="endArrow=block;endFill=0;endSize=12;html=1;rounded=0;edgeStyle=orthogonalEdgeStyle;" edge="1" parent="WIyWlLk6GJQsqaUBKTNV-1" source="hSVaMQJo7yX8vhGdQ6RE-30" target="zkfFHV4jXpPFQw0GAbJ--6">
          <mxGeometry width="160" relative="1" as="geometry">
            <mxPoint x="270" y="370" as="sourcePoint" />
            <mxPoint x="360" y="290" as="targetPoint" />
          </mxGeometry>
        </mxCell>
        <mxCell id="Ch5hACxwNJ_8r7opMOBk-2" value="" style="endArrow=block;dashed=1;endFill=0;endSize=12;html=1;rounded=0;edgeStyle=orthogonalEdgeStyle;" edge="1" parent="WIyWlLk6GJQsqaUBKTNV-1" source="hSVaMQJo7yX8vhGdQ6RE-16" target="hSVaMQJo7yX8vhGdQ6RE-12">
          <mxGeometry width="160" relative="1" as="geometry">
            <mxPoint x="534" y="320" as="sourcePoint" />
            <mxPoint x="690" y="280" as="targetPoint" />
          </mxGeometry>
        </mxCell>
        <mxCell id="Ch5hACxwNJ_8r7opMOBk-3" value="" style="endArrow=block;dashed=1;endFill=0;endSize=12;html=1;rounded=0;edgeStyle=orthogonalEdgeStyle;" edge="1" parent="WIyWlLk6GJQsqaUBKTNV-1" source="hSVaMQJo7yX8vhGdQ6RE-19" target="hSVaMQJo7yX8vhGdQ6RE-12">
          <mxGeometry width="160" relative="1" as="geometry">
            <mxPoint x="603" y="370" as="sourcePoint" />
            <mxPoint x="670" y="290" as="targetPoint" />
          </mxGeometry>
        </mxCell>
        <mxCell id="Ch5hACxwNJ_8r7opMOBk-4" value="" style="endArrow=block;dashed=1;endFill=0;endSize=12;html=1;rounded=0;" edge="1" parent="WIyWlLk6GJQsqaUBKTNV-1" source="zkfFHV4jXpPFQw0GAbJ--6" target="hSVaMQJo7yX8vhGdQ6RE-12">
          <mxGeometry width="160" relative="1" as="geometry">
            <mxPoint x="743" y="370" as="sourcePoint" />
            <mxPoint x="670" y="290" as="targetPoint" />
          </mxGeometry>
        </mxCell>
        <mxCell id="Ch5hACxwNJ_8r7opMOBk-5" value="Product p = factoryMethod()&lt;div style=&quot;text-align: left;&quot;&gt;p.doStuff()&lt;/div&gt;" style="html=1;dropTarget=0;whiteSpace=wrap;" vertex="1" parent="WIyWlLk6GJQsqaUBKTNV-1">
          <mxGeometry x="180" y="120" width="220" height="40" as="geometry" />
        </mxCell>
        <mxCell id="Ch5hACxwNJ_8r7opMOBk-6" value="" style="shape=module;jettyWidth=8;jettyHeight=4;" vertex="1" parent="Ch5hACxwNJ_8r7opMOBk-5">
          <mxGeometry x="1" width="20" height="20" relative="1" as="geometry">
            <mxPoint x="-27" y="7" as="offset" />
          </mxGeometry>
        </mxCell>
        <mxCell id="Ch5hACxwNJ_8r7opMOBk-7" value="" style="endArrow=none;dashed=1;html=1;rounded=0;entryX=0.25;entryY=1;entryDx=0;entryDy=0;exitX=0;exitY=0.5;exitDx=0;exitDy=0;edgeStyle=orthogonalEdgeStyle;" edge="1" parent="WIyWlLk6GJQsqaUBKTNV-1" source="zkfFHV4jXpPFQw0GAbJ--10" target="Ch5hACxwNJ_8r7opMOBk-5">
          <mxGeometry width="50" height="50" relative="1" as="geometry">
            <mxPoint x="130" y="270" as="sourcePoint" />
            <mxPoint x="180" y="220" as="targetPoint" />
          </mxGeometry>
        </mxCell>
        <mxCell id="Ch5hACxwNJ_8r7opMOBk-8" value="return new ConcreatorA()" style="html=1;dropTarget=0;whiteSpace=wrap;" vertex="1" parent="WIyWlLk6GJQsqaUBKTNV-1">
          <mxGeometry x="180" y="450" width="220" height="40" as="geometry" />
        </mxCell>
        <mxCell id="Ch5hACxwNJ_8r7opMOBk-9" value="" style="shape=module;jettyWidth=8;jettyHeight=4;" vertex="1" parent="Ch5hACxwNJ_8r7opMOBk-8">
          <mxGeometry x="1" width="20" height="20" relative="1" as="geometry">
            <mxPoint x="-27" y="7" as="offset" />
          </mxGeometry>
        </mxCell>
        <mxCell id="Ch5hACxwNJ_8r7opMOBk-10" value="" style="endArrow=none;dashed=1;html=1;rounded=0;entryX=0.346;entryY=1.025;entryDx=0;entryDy=0;exitX=0.25;exitY=0;exitDx=0;exitDy=0;entryPerimeter=0;" edge="1" parent="WIyWlLk6GJQsqaUBKTNV-1" source="Ch5hACxwNJ_8r7opMOBk-8" target="hSVaMQJo7yX8vhGdQ6RE-28">
          <mxGeometry width="50" height="50" relative="1" as="geometry">
            <mxPoint x="285" y="547" as="sourcePoint" />
            <mxPoint x="250" y="470" as="targetPoint" />
          </mxGeometry>
        </mxCell>
        <mxCell id="Ch5hACxwNJ_8r7opMOBk-14" value="" style="group" vertex="1" connectable="0" parent="WIyWlLk6GJQsqaUBKTNV-1">
          <mxGeometry x="-120" y="110" width="280" height="170" as="geometry" />
        </mxCell>
        <mxCell id="Ch5hACxwNJ_8r7opMOBk-12" value="" style="verticalLabelPosition=bottom;verticalAlign=top;html=1;shape=mxgraph.basic.rect;fillColor2=none;strokeWidth=1;size=20;indent=5;fillColor=#dae8fc;strokeColor=#6c8ebf;" vertex="1" parent="Ch5hACxwNJ_8r7opMOBk-14">
          <mxGeometry width="280.00000000000006" height="170" as="geometry" />
        </mxCell>
        <mxCell id="Ch5hACxwNJ_8r7opMOBk-11" value="&lt;font style=&quot;font-size: 18px;&quot;&gt;3&lt;/font&gt;" style="shape=umlFrame;whiteSpace=wrap;html=1;pointerEvents=0;fillColor=#dae8fc;strokeColor=#6c8ebf;" vertex="1" parent="Ch5hACxwNJ_8r7opMOBk-14">
          <mxGeometry width="280.00000000000006" height="170" as="geometry" />
        </mxCell>
        <mxCell id="Ch5hACxwNJ_8r7opMOBk-13" value="&lt;b&gt;Creator(創建者)&lt;/b&gt;&lt;div&gt;&lt;div style=&quot;text-align: left;&quot;&gt;&lt;span style=&quot;background-color: initial;&quot;&gt;1. 是一個&lt;b&gt;類別&lt;/b&gt;&lt;/span&gt;&lt;b style=&quot;background-color: initial;&quot;&gt;，&lt;/b&gt;&lt;span style=&quot;background-color: initial;&quot;&gt;裡面有操作產品的所有方法的實作，&lt;/span&gt;&lt;span style=&quot;background-color: initial;&quot;&gt;但不包含工廠方法。&lt;/span&gt;&lt;/div&gt;&lt;div style=&quot;text-align: left;&quot;&gt;2. 可以將&lt;b&gt;工廠方法宣告成抽象&lt;/b&gt;，強制要求每個子類都必須實作，或者，可以在基礎工廠方法中返回默認產品類型。&lt;/div&gt;&lt;div style=&quot;text-align: left;&quot;&gt;3. 創建者最主要的職責&lt;b&gt;不是&lt;/b&gt;創建產品，而是產品相關的核心業務邏輯。工廠方法將邏輯處理從具體產品類中分離出來。&lt;/div&gt;&lt;/div&gt;" style="html=1;whiteSpace=wrap;fillColor=#dae8fc;strokeColor=#6c8ebf;" vertex="1" parent="Ch5hACxwNJ_8r7opMOBk-14">
          <mxGeometry y="30" width="280" height="140" as="geometry" />
        </mxCell>
        <mxCell id="Ch5hACxwNJ_8r7opMOBk-16" value="" style="group" vertex="1" connectable="0" parent="WIyWlLk6GJQsqaUBKTNV-1">
          <mxGeometry x="570" y="90" width="190" height="90" as="geometry" />
        </mxCell>
        <mxCell id="Ch5hACxwNJ_8r7opMOBk-17" value="" style="verticalLabelPosition=bottom;verticalAlign=top;html=1;shape=mxgraph.basic.rect;fillColor2=none;strokeWidth=1;size=20;indent=5;fillColor=#dae8fc;strokeColor=#6c8ebf;" vertex="1" parent="Ch5hACxwNJ_8r7opMOBk-16">
          <mxGeometry width="190.00000000000006" height="90" as="geometry" />
        </mxCell>
        <mxCell id="Ch5hACxwNJ_8r7opMOBk-18" value="&lt;font style=&quot;font-size: 18px;&quot;&gt;1&lt;/font&gt;" style="shape=umlFrame;whiteSpace=wrap;html=1;pointerEvents=0;fillColor=#dae8fc;strokeColor=#6c8ebf;" vertex="1" parent="Ch5hACxwNJ_8r7opMOBk-16">
          <mxGeometry width="190.00000000000006" height="90" as="geometry" />
        </mxCell>
        <mxCell id="Ch5hACxwNJ_8r7opMOBk-19" value="&lt;b&gt;Product(產品)&lt;/b&gt;&lt;div&gt;&lt;div style=&quot;text-align: left;&quot;&gt;&lt;span style=&quot;background-color: initial;&quot;&gt;所有產品都必須實作同一個介面，讓使用產品的類別&lt;b&gt;引用介面&lt;/b&gt;，&lt;br&gt;而不是引用具體類別。&lt;/span&gt;&lt;/div&gt;&lt;/div&gt;" style="html=1;whiteSpace=wrap;fillColor=#dae8fc;strokeColor=#6c8ebf;" vertex="1" parent="Ch5hACxwNJ_8r7opMOBk-16">
          <mxGeometry y="30" width="190" height="60" as="geometry" />
        </mxCell>
        <mxCell id="Ch5hACxwNJ_8r7opMOBk-21" value="" style="group" vertex="1" connectable="0" parent="WIyWlLk6GJQsqaUBKTNV-1">
          <mxGeometry x="570" y="420" width="190" height="70" as="geometry" />
        </mxCell>
        <mxCell id="Ch5hACxwNJ_8r7opMOBk-22" value="" style="verticalLabelPosition=bottom;verticalAlign=top;html=1;shape=mxgraph.basic.rect;fillColor2=none;strokeWidth=1;size=20;indent=5;fillColor=#dae8fc;strokeColor=#6c8ebf;" vertex="1" parent="Ch5hACxwNJ_8r7opMOBk-21">
          <mxGeometry width="190.00000000000006" height="70" as="geometry" />
        </mxCell>
        <mxCell id="Ch5hACxwNJ_8r7opMOBk-23" value="&lt;font style=&quot;font-size: 18px;&quot;&gt;2&lt;/font&gt;" style="shape=umlFrame;whiteSpace=wrap;html=1;pointerEvents=0;fillColor=#dae8fc;strokeColor=#6c8ebf;" vertex="1" parent="Ch5hACxwNJ_8r7opMOBk-21">
          <mxGeometry width="190.00000000000006" height="70" as="geometry" />
        </mxCell>
        <mxCell id="Ch5hACxwNJ_8r7opMOBk-24" value="&lt;b&gt;ConcreteProduct(具體產品)&lt;/b&gt;&lt;div&gt;&lt;div style=&quot;text-align: left;&quot;&gt;產品介面的不同實現&lt;/div&gt;&lt;/div&gt;" style="html=1;whiteSpace=wrap;fillColor=#dae8fc;strokeColor=#6c8ebf;" vertex="1" parent="Ch5hACxwNJ_8r7opMOBk-21">
          <mxGeometry y="30" width="190" height="40" as="geometry" />
        </mxCell>
        <mxCell id="Ch5hACxwNJ_8r7opMOBk-25" value="" style="group" vertex="1" connectable="0" parent="WIyWlLk6GJQsqaUBKTNV-1">
          <mxGeometry x="-120" y="360" width="280" height="130" as="geometry" />
        </mxCell>
        <mxCell id="Ch5hACxwNJ_8r7opMOBk-26" value="" style="verticalLabelPosition=bottom;verticalAlign=top;html=1;shape=mxgraph.basic.rect;fillColor2=none;strokeWidth=1;size=20;indent=5;fillColor=#dae8fc;strokeColor=#6c8ebf;" vertex="1" parent="Ch5hACxwNJ_8r7opMOBk-25">
          <mxGeometry width="280.00000000000006" height="130" as="geometry" />
        </mxCell>
        <mxCell id="Ch5hACxwNJ_8r7opMOBk-27" value="&lt;font style=&quot;font-size: 18px;&quot;&gt;4&lt;/font&gt;" style="shape=umlFrame;whiteSpace=wrap;html=1;pointerEvents=0;fillColor=#dae8fc;strokeColor=#6c8ebf;" vertex="1" parent="Ch5hACxwNJ_8r7opMOBk-25">
          <mxGeometry width="280.00000000000006" height="130" as="geometry" />
        </mxCell>
        <mxCell id="Ch5hACxwNJ_8r7opMOBk-28" value="&lt;b&gt;ConcreteCreator(具體創建者)&lt;/b&gt;&lt;div&gt;&lt;div style=&quot;text-align: left;&quot;&gt;&lt;span style=&quot;background-color: initial;&quot;&gt;1. 負責建立一或多個具體產品，唯一知道&lt;b&gt;如何建立&lt;/b&gt;這些產品的類別。&lt;/span&gt;&lt;/div&gt;&lt;div style=&quot;text-align: left;&quot;&gt;2. 不一定每次調用工廠方法都會&lt;b&gt;創建&lt;/b&gt;新的實例，也可以返回緩存、對象池或其他來源的已有對象。&lt;br&gt;&lt;/div&gt;&lt;/div&gt;" style="html=1;whiteSpace=wrap;fillColor=#dae8fc;strokeColor=#6c8ebf;" vertex="1" parent="Ch5hACxwNJ_8r7opMOBk-25">
          <mxGeometry y="30" width="280" height="100" as="geometry" />
        </mxCell>
      </root>
    </mxGraphModel>
  </diagram>
</mxfile>
